<mxfile host="app.diagrams.net" modified="2023-11-13T15:13:40.761Z" agent="Mozilla/5.0 (Windows NT 10.0; Win64; x64; rv:109.0) Gecko/20100101 Firefox/116.0" etag="RfSzhnLKn7FvrEl5oYtW" version="22.1.0" type="github">
  <diagram id="C5RBs43oDa-KdzZeNtuy" name="Page-1">
    <mxGraphModel dx="880" dy="463" grid="1" gridSize="10" guides="1" tooltips="1" connect="1" arrows="1" fold="1" page="1" pageScale="1" pageWidth="827" pageHeight="1169" math="0" shadow="0">
      <root>
        <mxCell id="WIyWlLk6GJQsqaUBKTNV-0" />
        <mxCell id="WIyWlLk6GJQsqaUBKTNV-1" parent="WIyWlLk6GJQsqaUBKTNV-0" />
        <mxCell id="NwByxTrdvsMd5VJhw4ta-2" style="edgeStyle=orthogonalEdgeStyle;rounded=0;orthogonalLoop=1;jettySize=auto;html=1;entryX=0.5;entryY=0;entryDx=0;entryDy=0;" edge="1" parent="WIyWlLk6GJQsqaUBKTNV-1" source="NwByxTrdvsMd5VJhw4ta-0" target="NwByxTrdvsMd5VJhw4ta-1">
          <mxGeometry relative="1" as="geometry" />
        </mxCell>
        <mxCell id="NwByxTrdvsMd5VJhw4ta-0" value="start" style="ellipse;whiteSpace=wrap;html=1;" vertex="1" parent="WIyWlLk6GJQsqaUBKTNV-1">
          <mxGeometry x="340" width="120" height="80" as="geometry" />
        </mxCell>
        <mxCell id="NwByxTrdvsMd5VJhw4ta-4" style="edgeStyle=orthogonalEdgeStyle;rounded=0;orthogonalLoop=1;jettySize=auto;html=1;entryX=0.5;entryY=0;entryDx=0;entryDy=0;" edge="1" parent="WIyWlLk6GJQsqaUBKTNV-1" source="NwByxTrdvsMd5VJhw4ta-1" target="NwByxTrdvsMd5VJhw4ta-3">
          <mxGeometry relative="1" as="geometry" />
        </mxCell>
        <mxCell id="NwByxTrdvsMd5VJhw4ta-1" value="sum=0,i=1" style="shape=parallelogram;perimeter=parallelogramPerimeter;whiteSpace=wrap;html=1;fixedSize=1;" vertex="1" parent="WIyWlLk6GJQsqaUBKTNV-1">
          <mxGeometry x="330" y="150" width="120" height="60" as="geometry" />
        </mxCell>
        <mxCell id="NwByxTrdvsMd5VJhw4ta-10" value="false" style="edgeStyle=orthogonalEdgeStyle;rounded=0;orthogonalLoop=1;jettySize=auto;html=1;entryX=0;entryY=0.5;entryDx=0;entryDy=0;" edge="1" parent="WIyWlLk6GJQsqaUBKTNV-1" source="NwByxTrdvsMd5VJhw4ta-3" target="NwByxTrdvsMd5VJhw4ta-11">
          <mxGeometry relative="1" as="geometry">
            <mxPoint x="760" y="320" as="targetPoint" />
          </mxGeometry>
        </mxCell>
        <mxCell id="NwByxTrdvsMd5VJhw4ta-3" value="i&amp;lt;10" style="rhombus;whiteSpace=wrap;html=1;" vertex="1" parent="WIyWlLk6GJQsqaUBKTNV-1">
          <mxGeometry x="350" y="280" width="110" height="80" as="geometry" />
        </mxCell>
        <mxCell id="NwByxTrdvsMd5VJhw4ta-5" value="i%2==0" style="rhombus;whiteSpace=wrap;html=1;" vertex="1" parent="WIyWlLk6GJQsqaUBKTNV-1">
          <mxGeometry x="365" y="430" width="125" height="110" as="geometry" />
        </mxCell>
        <mxCell id="NwByxTrdvsMd5VJhw4ta-6" value="true" style="edgeStyle=orthogonalEdgeStyle;rounded=0;orthogonalLoop=1;jettySize=auto;html=1;entryX=0.438;entryY=0.088;entryDx=0;entryDy=0;entryPerimeter=0;" edge="1" parent="WIyWlLk6GJQsqaUBKTNV-1" source="NwByxTrdvsMd5VJhw4ta-3" target="NwByxTrdvsMd5VJhw4ta-5">
          <mxGeometry relative="1" as="geometry" />
        </mxCell>
        <mxCell id="NwByxTrdvsMd5VJhw4ta-9" style="edgeStyle=orthogonalEdgeStyle;rounded=0;orthogonalLoop=1;jettySize=auto;html=1;" edge="1" parent="WIyWlLk6GJQsqaUBKTNV-1" source="NwByxTrdvsMd5VJhw4ta-7">
          <mxGeometry relative="1" as="geometry">
            <mxPoint x="390" y="230" as="targetPoint" />
            <Array as="points">
              <mxPoint x="231" y="670" />
            </Array>
          </mxGeometry>
        </mxCell>
        <mxCell id="NwByxTrdvsMd5VJhw4ta-7" value="&lt;div&gt;printf i&lt;/div&gt;&lt;div&gt;sum+=i&lt;br&gt;&lt;/div&gt;" style="shape=parallelogram;perimeter=parallelogramPerimeter;whiteSpace=wrap;html=1;fixedSize=1;" vertex="1" parent="WIyWlLk6GJQsqaUBKTNV-1">
          <mxGeometry x="380" y="640" width="120" height="60" as="geometry" />
        </mxCell>
        <mxCell id="NwByxTrdvsMd5VJhw4ta-8" style="edgeStyle=orthogonalEdgeStyle;rounded=0;orthogonalLoop=1;jettySize=auto;html=1;entryX=0.333;entryY=-0.05;entryDx=0;entryDy=0;entryPerimeter=0;" edge="1" parent="WIyWlLk6GJQsqaUBKTNV-1" source="NwByxTrdvsMd5VJhw4ta-5" target="NwByxTrdvsMd5VJhw4ta-7">
          <mxGeometry relative="1" as="geometry" />
        </mxCell>
        <mxCell id="NwByxTrdvsMd5VJhw4ta-16" style="edgeStyle=orthogonalEdgeStyle;rounded=0;orthogonalLoop=1;jettySize=auto;html=1;entryX=0;entryY=0.5;entryDx=0;entryDy=0;" edge="1" parent="WIyWlLk6GJQsqaUBKTNV-1" source="NwByxTrdvsMd5VJhw4ta-11" target="NwByxTrdvsMd5VJhw4ta-15">
          <mxGeometry relative="1" as="geometry" />
        </mxCell>
        <mxCell id="NwByxTrdvsMd5VJhw4ta-11" value="printf sum" style="shape=parallelogram;perimeter=parallelogramPerimeter;whiteSpace=wrap;html=1;fixedSize=1;" vertex="1" parent="WIyWlLk6GJQsqaUBKTNV-1">
          <mxGeometry x="740" y="290" width="120" height="60" as="geometry" />
        </mxCell>
        <mxCell id="NwByxTrdvsMd5VJhw4ta-15" value="end" style="ellipse;whiteSpace=wrap;html=1;" vertex="1" parent="WIyWlLk6GJQsqaUBKTNV-1">
          <mxGeometry x="970" y="310" width="120" height="80" as="geometry" />
        </mxCell>
      </root>
    </mxGraphModel>
  </diagram>
</mxfile>
